<svg xmlns="http://www.w3.org/2000/svg" xmlns:xlink="http://www.w3.org/1999/xlink" width="500" zoomAndPan="magnify" viewBox="0 0 375 374.999991" height="500" preserveAspectRatio="xMidYMid meet" version="1.0"><defs><clipPath id="02bd45ce19"><path d="M 69 69 L 306 69 L 306 306 L 69 306 Z M 69 69 " clip-rule="nonzero"/></clipPath><clipPath id="94f3cf3b11"><path d="M 97.394531 46.242188 L 328.757812 97.398438 L 277.601562 328.757812 L 46.242188 277.605469 Z M 97.394531 46.242188 " clip-rule="nonzero"/></clipPath><clipPath id="0bbb29bb35"><path d="M 213.074219 71.820312 C 149.1875 57.695312 85.945312 98.035156 71.820312 161.921875 C 57.691406 225.8125 98.035156 289.054688 161.921875 303.179688 C 225.8125 317.308594 289.054688 276.964844 303.179688 213.078125 C 317.304688 149.1875 276.964844 85.945312 213.074219 71.820312 " clip-rule="nonzero"/></clipPath><clipPath id="709347279e"><path d="M 77 74 L 299 74 L 299 301 L 77 301 Z M 77 74 " clip-rule="nonzero"/></clipPath><clipPath id="076fbd2d24"><path d="M 302.644531 296.542969 L 80.789062 304.519531 L 72.652344 78.164062 L 294.507812 70.191406 Z M 302.644531 296.542969 " clip-rule="nonzero"/></clipPath><clipPath id="02f2e21c15"><path d="M 302.644531 296.542969 L 80.789062 304.519531 L 72.652344 78.164062 L 294.507812 70.191406 Z M 302.644531 296.542969 " clip-rule="nonzero"/></clipPath><clipPath id="798527dfa8"><path d="M 302.644531 296.542969 L 80.789062 304.519531 L 72.652344 78.164062 L 294.507812 70.191406 Z M 302.644531 296.542969 " clip-rule="nonzero"/></clipPath><clipPath id="ebe369adeb"><path d="M 82 82 L 293 82 L 293 293 L 82 293 Z M 82 82 " clip-rule="nonzero"/></clipPath><clipPath id="85ec3b0f69"><path d="M 71.148438 279.058594 L 95.933594 71.140625 L 303.851562 95.925781 L 279.066406 303.84375 Z M 71.148438 279.058594 " clip-rule="nonzero"/></clipPath><clipPath id="ff6af628c1"><path d="M 83.542969 175.097656 C 76.699219 232.511719 117.695312 284.605469 175.109375 291.449219 C 232.523438 298.292969 284.613281 257.296875 291.457031 199.882812 C 298.300781 142.46875 257.308594 90.378906 199.894531 83.535156 C 142.480469 76.691406 90.386719 117.683594 83.542969 175.097656 " clip-rule="nonzero"/></clipPath></defs><rect x="-37.5" width="450" fill="#ffffff" y="-37.499999" height="449.999989" fill-opacity="1"/><rect x="-37.5" width="450" fill="#ffffff" y="-37.499999" height="449.999989" fill-opacity="1"/><rect x="-37.5" width="450" fill="#ffffff" y="-37.499999" height="449.999989" fill-opacity="1"/><rect x="-37.5" width="450" fill="#ffffff" y="-37.499999" height="449.999989" fill-opacity="1"/><rect x="-37.5" width="450" fill="#ffffff" y="-37.499999" height="449.999989" fill-opacity="1"/><rect x="-37.5" width="450" fill="#c3714b" y="-37.499999" height="449.999989" fill-opacity="1"/><g clip-path="url(#02bd45ce19)"><g clip-path="url(#94f3cf3b11)"><g clip-path="url(#0bbb29bb35)"><path fill="#0b0019" d="M 97.394531 46.242188 L 328.757812 97.398438 L 277.601562 328.757812 L 46.242188 277.605469 Z M 97.394531 46.242188 " fill-opacity="1" fill-rule="nonzero"/></g></g></g><g clip-path="url(#709347279e)"><g clip-path="url(#076fbd2d24)"><g clip-path="url(#02f2e21c15)"><g clip-path="url(#798527dfa8)"><path fill="#c3714b" d="M 298.121094 178.761719 C 299.085938 197.75 295.039062 215.734375 287.105469 232.875 C 282.847656 242.070312 277.367188 250.507812 270.882812 258.328125 C 260.859375 270.410156 248.957031 280.117188 235.121094 287.4375 C 225.109375 292.734375 214.523438 296.511719 203.378906 298.4375 C 197.175781 299.507812 190.890625 300.558594 184.554688 300.222656 C 180.28125 299.996094 175.996094 299.917969 171.714844 299.535156 C 159.761719 298.472656 148.558594 295.042969 137.769531 290.023438 C 129.757812 286.296875 122.46875 281.421875 115.628906 275.832031 C 111.109375 272.140625 107.078125 267.988281 103.28125 263.582031 C 102.226562 262.363281 102.097656 260.886719 103.066406 260.117188 C 104.292969 259.144531 105.460938 259.4375 106.484375 260.535156 C 108.566406 262.761719 110.59375 265.03125 112.785156 267.160156 C 125.050781 279.132812 139.421875 287.414062 155.898438 292.019531 C 162.335938 293.816406 168.867188 294.984375 175.566406 295.414062 C 179.0625 295.636719 182.570312 295.882812 186.054688 295.878906 C 189.777344 295.878906 193.515625 295.351562 197.226562 294.863281 C 204.425781 293.910156 211.488281 292.277344 218.339844 289.84375 C 229.96875 285.707031 240.671875 279.890625 250.355469 272.160156 C 255.964844 267.679688 261.230469 262.855469 265.902344 257.417969 C 274.496094 247.421875 281.230469 236.269531 286.042969 223.972656 C 288.917969 216.621094 290.988281 209.058594 292.296875 201.273438 C 292.828125 198.128906 293.085938 194.960938 293.457031 191.804688 C 294.390625 183.835938 294.179688 175.847656 292.996094 168 C 291.339844 157.039062 288.285156 146.398438 283.398438 136.355469 C 279.574219 128.496094 274.933594 121.179688 269.300781 114.519531 C 262.667969 106.679688 255.042969 99.988281 246.339844 94.492188 C 235.046875 87.359375 222.867188 82.636719 209.726562 80.316406 C 201.007812 78.777344 192.21875 78.148438 183.429688 78.996094 C 167.449219 80.539062 152.363281 85.164062 138.4375 93.277344 C 129.382812 98.554688 121.226562 104.964844 113.886719 112.503906 C 103.554688 123.121094 95.714844 135.3125 90.039062 148.945312 C 85.914062 158.863281 83.320312 169.21875 82.222656 179.902344 C 81.707031 184.953125 81.429688 190.058594 81.648438 195.148438 C 82.167969 207.230469 84.265625 219.007812 88.683594 230.316406 C 88.960938 231.027344 89.289062 231.730469 89.460938 232.46875 C 89.691406 233.433594 89.605469 234.523438 88.519531 234.789062 C 87.515625 235.035156 86.230469 235.699219 85.472656 234.140625 C 84.28125 231.703125 83.375 229.148438 82.574219 226.578125 C 80.570312 220.152344 78.898438 213.636719 78.152344 206.917969 C 77.371094 199.875 76.808594 192.777344 77.230469 185.71875 C 78.476562 164.828125 84.65625 145.457031 95.964844 127.804688 C 100.632812 120.515625 106.023438 113.769531 112.191406 107.71875 C 123.488281 96.640625 136.40625 87.980469 151.167969 82.144531 C 158.21875 79.359375 165.464844 77.300781 172.890625 75.882812 C 180.6875 74.394531 188.632812 73.988281 196.511719 74.285156 C 210.496094 74.8125 223.9375 78.101562 236.667969 84.027344 C 245.042969 87.925781 252.785156 92.851562 259.863281 98.828125 C 277.15625 113.433594 288.550781 131.800781 294.527344 153.582031 C 295.65625 157.699219 296.40625 161.929688 297.179688 166.132812 C 297.9375 170.296875 297.933594 174.539062 298.121094 178.761719 Z M 298.121094 178.761719 " fill-opacity="1" fill-rule="nonzero"/></g></g></g></g><g clip-path="url(#ebe369adeb)"><g clip-path="url(#85ec3b0f69)"><g clip-path="url(#ff6af628c1)"><path fill="#f8f4f2" d="M 71.148438 279.058594 L 95.933594 71.140625 L 303.851562 95.925781 L 279.066406 303.84375 Z M 71.148438 279.058594 " fill-opacity="1" fill-rule="nonzero"/></g></g></g><path fill="#0b0019" d="M 109.753906 214.445312 C 107.210938 214.757812 104.464844 214.976562 101.519531 215.101562 C 100.871094 215.144531 100.214844 215.203125 99.550781 215.273438 C 97.832031 215.390625 96.425781 215.15625 95.332031 214.570312 C 94.238281 213.988281 93.457031 212.925781 92.988281 211.382812 C 92.621094 209.9375 92.523438 207.863281 92.691406 205.164062 C 92.855469 202.46875 93.132812 199.523438 93.519531 196.335938 C 93.839844 193.640625 94.101562 191.019531 94.300781 188.476562 C 94.496094 185.925781 94.496094 183.242188 94.300781 180.429688 C 92.777344 181.347656 91.878906 181.953125 91.597656 182.242188 C 90.628906 181.304688 89.972656 180.285156 89.628906 179.179688 C 89.496094 178.816406 89.441406 178.203125 89.472656 177.335938 C 89.496094 176.460938 90.046875 175.660156 91.128906 174.929688 C 92.273438 174.234375 93.867188 173.757812 95.910156 173.507812 C 97.949219 173.25 100.757812 173.082031 104.332031 173.007812 C 108.070312 172.90625 110.851562 172.738281 112.675781 172.507812 C 114.589844 172.269531 115.980469 171.945312 116.847656 171.539062 C 116.941406 171.726562 117.085938 172.109375 117.285156 172.679688 C 117.648438 173.953125 117.476562 175.210938 116.769531 176.460938 C 116.058594 177.710938 114.492188 178.59375 112.066406 179.101562 L 111.253906 179.226562 C 109.660156 179.425781 107.773438 179.460938 105.597656 179.335938 C 104.273438 179.304688 101.789062 179.304688 98.144531 179.335938 C 101.050781 180.523438 102.628906 181.347656 102.878906 181.804688 C 102.992188 182.054688 103.097656 182.347656 103.191406 182.679688 C 103.722656 184.347656 103.730469 187.664062 103.222656 192.632812 C 105.460938 192.332031 107.429688 191.992188 109.128906 191.617188 C 110.824219 191.242188 112.691406 190.769531 114.722656 190.195312 C 114.867188 190.40625 115.019531 190.757812 115.175781 191.257812 C 115.351562 191.820312 115.382812 192.457031 115.269531 193.164062 C 115.152344 193.875 114.757812 194.394531 114.082031 194.726562 C 112.894531 195.289062 111.664062 195.648438 110.394531 195.804688 L 109.238281 195.945312 C 108.539062 196.039062 107.402344 196.085938 105.832031 196.085938 L 102.878906 196.164062 C 102.285156 200.882812 102.085938 205.410156 102.285156 209.742188 C 106.304688 208.597656 109.824219 207.40625 112.847656 206.164062 C 115.917969 204.988281 117.761719 204.363281 118.378906 204.289062 C 118.472656 204.269531 118.441406 204.191406 118.285156 204.054688 C 118.574219 204.585938 118.804688 205.15625 118.972656 205.757812 C 119.410156 207.25 119.320312 208.804688 118.707031 210.429688 C 118.101562 212.054688 116.621094 213.148438 114.269531 213.710938 C 112.839844 214.003906 111.335938 214.25 109.753906 214.445312 Z M 109.753906 214.445312 " fill-opacity="1" fill-rule="nonzero"/><path fill="#0b0019" d="M 128.128906 211.292969 C 127.355469 211.398438 126.550781 211.410156 125.707031 211.324219 C 124.144531 211.148438 122.824219 210.613281 121.753906 209.714844 C 120.679688 208.820312 119.914062 207.800781 119.457031 206.652344 C 119.289062 206.269531 119.136719 205.882812 119.003906 205.496094 C 118.441406 203.613281 118.097656 200.761719 117.972656 196.949219 C 117.910156 192.503906 117.472656 188.933594 116.660156 186.246094 C 116.285156 185.058594 115.957031 184.148438 115.675781 183.511719 L 115.144531 183.574219 C 117.238281 183.316406 119.132812 183.382812 120.832031 183.777344 C 122.539062 184.164062 123.714844 184.773438 124.363281 185.605469 C 124.851562 186.316406 125.230469 187.082031 125.503906 187.902344 C 125.960938 189.425781 126.101562 191.691406 125.925781 194.699219 C 125.871094 196.304688 125.878906 197.964844 125.941406 199.683594 C 126.011719 201.402344 126.488281 203.710938 127.363281 206.605469 C 130.121094 202.410156 132.074219 198.523438 133.222656 194.949219 C 134.378906 191.378906 135.097656 188.164062 135.378906 185.308594 C 135.605469 182.652344 135.527344 180.695312 135.144531 179.433594 L 135.050781 179.167969 C 135.152344 179.636719 134.992188 179.898438 134.566406 179.949219 C 134.660156 179.941406 135.105469 180.011719 135.910156 180.167969 C 136.722656 180.316406 137.757812 180.613281 139.019531 181.058594 C 140.289062 181.496094 141.394531 182.054688 142.332031 182.730469 C 142.976562 183.210938 143.382812 183.730469 143.550781 184.292969 C 143.613281 184.460938 143.652344 184.613281 143.675781 184.746094 C 143.320312 190.738281 142.191406 195.675781 140.285156 199.558594 C 137.261719 205.789062 133.910156 209.535156 130.222656 210.792969 C 129.542969 211.042969 128.847656 211.210938 128.128906 211.292969 Z M 128.128906 211.292969 " fill-opacity="1" fill-rule="nonzero"/><path fill="#0b0019" d="M 157.5 207.710938 C 154.59375 208.078125 152.019531 207.820312 149.78125 206.945312 C 147.539062 206.070312 145.773438 204.644531 144.484375 202.664062 C 143.867188 201.71875 143.390625 200.675781 143.046875 199.539062 C 142.671875 198.3125 142.460938 196.976562 142.40625 195.539062 C 142.34375 193.457031 142.640625 191.421875 143.296875 189.429688 C 143.953125 187.441406 144.945312 185.628906 146.28125 183.992188 C 147.613281 182.347656 149.269531 180.972656 151.25 179.867188 C 153.238281 178.765625 155.519531 178.050781 158.09375 177.726562 L 158.640625 177.648438 C 160.859375 177.378906 162.851562 177.597656 164.625 178.304688 C 166.40625 179.003906 167.757812 180.085938 168.6875 181.554688 C 169 182.054688 169.238281 182.597656 169.40625 183.179688 C 169.738281 184.242188 169.8125 185.40625 169.625 186.664062 C 169.238281 188.550781 168.1875 190.257812 166.46875 191.789062 C 164.75 193.320312 162.6875 194.578125 160.28125 195.554688 C 158.175781 196.398438 156.117188 196.945312 154.109375 197.195312 L 152.125 197.398438 C 153.332031 199.242188 154.609375 200.4375 155.953125 200.976562 C 157.304688 201.519531 158.875 201.679688 160.65625 201.460938 C 162.84375 201.140625 164.648438 200.515625 166.078125 199.585938 C 167.503906 198.648438 168.597656 197.671875 169.359375 196.648438 C 169.253906 196.628906 169.238281 196.742188 169.3125 196.992188 C 169.34375 197.085938 169.394531 197.34375 169.46875 197.757812 C 169.539062 198.164062 169.378906 198.882812 168.984375 199.914062 C 168.585938 200.945312 167.941406 202.003906 167.046875 203.085938 C 166.148438 204.160156 165 205.113281 163.59375 205.945312 C 162.195312 206.769531 160.535156 207.300781 158.609375 207.539062 Z M 151.375 193.523438 C 154.675781 192.722656 157.222656 191.785156 159.015625 190.710938 C 161.617188 189.148438 162.582031 187.25 161.90625 185.007812 C 161.3125 183.03125 159.882812 182.179688 157.625 182.460938 C 156.082031 182.742188 154.882812 183.46875 154.03125 184.632812 C 153.1875 185.800781 152.570312 187.101562 152.1875 188.539062 C 151.800781 189.96875 151.53125 191.628906 151.375 193.523438 Z M 151.375 193.523438 " fill-opacity="1" fill-rule="nonzero"/><path fill="#0b0019" d="M 195.527344 203.125 C 194.765625 203.21875 193.699219 203.167969 192.324219 202.96875 C 190.949219 202.773438 189.886719 201.511719 189.136719 199.1875 C 188.761719 197.824219 188.613281 196.375 188.699219 194.84375 C 188.78125 193.304688 188.957031 191.648438 189.230469 189.875 C 189.59375 187.636719 189.859375 185.140625 190.027344 182.390625 C 189.996094 182.171875 189.957031 181.976562 189.917969 181.796875 C 189.667969 181.058594 189.175781 180.734375 188.449219 180.828125 C 188.21875 180.851562 187.832031 181 187.292969 181.28125 C 186.761719 181.554688 185.953125 182.328125 184.871094 183.609375 C 183.796875 184.882812 182.777344 186.449219 181.808594 188.3125 C 180.847656 190.179688 180.199219 192.214844 179.855469 194.421875 C 179.449219 197.089844 179.582031 199.515625 180.261719 201.703125 C 180.59375 202.808594 180.9375 203.578125 181.292969 204.015625 C 180.011719 204.746094 178.609375 205.210938 177.089844 205.40625 C 176.308594 205.5 175.230469 205.449219 173.855469 205.25 C 172.480469 205.054688 171.417969 203.808594 170.667969 201.515625 C 170.273438 200.101562 170.152344 198.324219 170.308594 196.1875 C 170.457031 194.042969 170.691406 191.746094 171.011719 189.296875 C 171.355469 186.664062 171.605469 184.105469 171.761719 181.625 C 171.917969 179.148438 171.808594 177.273438 171.433594 176 C 173.316406 175.867188 175.136719 175.980469 176.886719 176.34375 C 178.636719 176.710938 179.734375 177.25 180.183594 177.96875 C 180.316406 178.273438 180.4375 178.601562 180.542969 178.953125 C 180.832031 179.882812 180.96875 181.765625 180.949219 184.609375 C 183.230469 181.570312 185.113281 179.390625 186.605469 178.078125 C 188.105469 176.757812 189.566406 175.625 190.996094 174.6875 C 192.421875 173.75 193.785156 173.199219 195.089844 173.03125 C 195.359375 173 195.917969 172.980469 196.761719 172.96875 C 197.605469 172.960938 198.347656 173.398438 198.996094 174.28125 C 199.191406 174.636719 199.371094 175.046875 199.527344 175.515625 C 199.828125 176.527344 199.933594 177.945312 199.839844 179.765625 C 199.753906 181.578125 199.53125 183.804688 199.167969 186.4375 C 198.207031 192.648438 198.136719 197.070312 198.949219 199.703125 C 199.25 200.695312 199.515625 201.359375 199.746094 201.703125 C 198.464844 202.453125 197.058594 202.929688 195.527344 203.125 Z M 195.527344 203.125 " fill-opacity="1" fill-rule="nonzero"/><path fill="#0b0019" d="M 214.394531 202.171875 C 212.257812 202.441406 210.269531 201.914062 208.425781 200.578125 C 207.050781 199.652344 206.042969 198.199219 205.410156 196.21875 C 204.972656 194.636719 204.820312 192.851562 204.957031 190.859375 C 205.101562 188.871094 205.378906 186.714844 205.785156 184.390625 C 206.074219 182.515625 206.371094 180.21875 206.675781 177.5 C 204.613281 177.761719 202.863281 178.0625 201.425781 178.40625 C 201.425781 178.40625 201.378906 178.214844 201.285156 177.828125 C 201.222656 177.640625 201.15625 177.296875 201.082031 176.796875 C 201.011719 176.296875 201.160156 175.679688 201.535156 174.9375 C 201.910156 174.199219 202.621094 173.703125 203.675781 173.453125 L 203.847656 173.40625 C 204.761719 173.242188 205.785156 173.085938 206.910156 172.9375 C 207.003906 169.386719 206.664062 166.132812 205.894531 163.171875 C 207.871094 163.027344 209.808594 163.167969 211.707031 163.59375 C 213.613281 164.023438 214.722656 164.578125 215.035156 165.265625 C 215.660156 167.320312 216.023438 169.6875 216.128906 172.375 C 218.160156 172.117188 219.917969 171.757812 221.410156 171.296875 C 221.597656 171.496094 221.769531 171.859375 221.925781 172.390625 C 222.527344 174.296875 221.957031 175.527344 220.207031 176.078125 C 218.820312 176.414062 217.367188 176.671875 215.847656 176.859375 C 215.628906 178.703125 215.414062 180.34375 215.207031 181.78125 C 214.800781 184.148438 214.542969 186.367188 214.441406 188.4375 C 214.347656 190.34375 214.539062 192.101562 215.019531 193.703125 C 215.539062 195.390625 216.460938 196.382812 217.785156 196.671875 C 218.367188 196.839844 218.972656 196.886719 219.597656 196.8125 C 219.941406 196.761719 220.449219 196.621094 221.128906 196.390625 C 221.804688 196.164062 222.347656 195.839844 222.753906 195.421875 L 222.582031 195.453125 C 222.445312 195.464844 222.351562 195.453125 222.300781 195.421875 C 222.257812 195.390625 222.253906 195.402344 222.285156 195.453125 C 222.285156 195.496094 222.292969 195.605469 222.316406 195.78125 C 222.347656 195.960938 222.304688 196.3125 222.191406 196.84375 C 221.835938 198.0625 221.144531 199.074219 220.113281 199.875 C 218.464844 201.136719 216.558594 201.902344 214.394531 202.171875 Z M 214.394531 202.171875 " fill-opacity="1" fill-rule="nonzero"/><path fill="#0b0019" d="M 232.753906 198.417969 C 231.972656 198.523438 230.886719 198.476562 229.503906 198.277344 C 228.117188 198.082031 227.050781 196.835938 226.300781 194.542969 C 225.894531 193.128906 225.769531 191.351562 225.925781 189.214844 C 226.082031 187.070312 226.316406 184.773438 226.628906 182.324219 C 227.003906 179.679688 227.261719 177.121094 227.410156 174.652344 C 227.554688 172.175781 227.433594 170.300781 227.050781 169.027344 C 228.933594 168.894531 230.753906 169.007812 232.503906 169.371094 C 234.253906 169.738281 235.351562 170.285156 235.800781 171.011719 C 235.957031 171.304688 236.085938 171.628906 236.191406 171.980469 C 236.511719 173.003906 236.644531 174.371094 236.582031 176.089844 C 236.519531 177.800781 236.335938 179.808594 236.035156 182.121094 C 235.199219 188.007812 235.183594 192.246094 235.988281 194.839844 C 236.289062 195.882812 236.597656 196.617188 236.910156 197.042969 C 235.648438 197.773438 234.261719 198.230469 232.753906 198.417969 Z M 232.675781 164.636719 C 231.777344 164.742188 230.824219 164.613281 229.816406 164.246094 C 228.179688 163.589844 227.160156 162.617188 226.753906 161.324219 C 226.480469 160.316406 226.597656 159.179688 227.097656 157.917969 C 227.761719 156.492188 228.714844 155.527344 229.957031 155.027344 C 230.351562 154.882812 230.773438 154.777344 231.222656 154.714844 C 232.105469 154.601562 233.058594 154.726562 234.082031 155.089844 C 235.683594 155.707031 236.675781 156.644531 237.050781 157.902344 C 237.363281 158.933594 237.253906 160.089844 236.722656 161.371094 C 236.066406 162.789062 235.113281 163.769531 233.863281 164.308594 C 233.488281 164.464844 233.089844 164.574219 232.675781 164.636719 Z M 232.675781 164.636719 " fill-opacity="1" fill-rule="nonzero"/><path fill="#0b0019" d="M 244.648438 196.933594 C 243.867188 197.027344 242.789062 196.976562 241.414062 196.777344 C 240.039062 196.582031 238.960938 195.335938 238.179688 193.042969 C 237.875 191.867188 237.796875 190.167969 237.945312 187.949219 C 238.089844 185.722656 238.339844 183.167969 238.695312 180.292969 C 238.933594 178.398438 239.171875 176.101562 239.414062 173.402344 C 237.453125 173.652344 235.757812 173.945312 234.320312 174.277344 L 234.351562 174.277344 C 234.351562 174.277344 234.300781 174.101562 234.195312 173.746094 C 234.132812 173.550781 234.078125 173.195312 234.023438 172.683594 C 233.972656 172.175781 234.140625 171.550781 234.523438 170.808594 C 234.898438 170.070312 235.601562 169.574219 236.632812 169.324219 L 236.960938 169.246094 C 237.71875 169.101562 238.621094 168.964844 239.664062 168.839844 C 239.746094 168.226562 239.777344 167.773438 239.757812 167.480469 C 239.808594 166.261719 239.914062 164.945312 240.070312 163.527344 C 240.234375 162.113281 240.539062 160.722656 240.976562 159.355469 C 241.421875 157.980469 242.078125 156.699219 242.945312 155.511719 C 243.808594 154.316406 244.9375 153.308594 246.335938 152.496094 C 247.742188 151.683594 249.523438 151.144531 251.679688 150.871094 C 254.949219 150.464844 257.5 150.726562 259.335938 151.652344 C 260.761719 152.382812 261.683594 153.417969 262.101562 154.761719 C 262.183594 155.054688 262.257812 155.363281 262.320312 155.683594 C 262.445312 156.871094 262.277344 157.800781 261.820312 158.464844 C 260.964844 159.570312 259.710938 160.226562 258.054688 160.433594 C 257.117188 160.550781 256.664062 160.617188 256.695312 160.636719 C 256.640625 160.304688 256.527344 159.855469 256.351562 159.292969 C 256.296875 159.074219 256.171875 158.699219 255.976562 158.167969 C 255.777344 157.628906 255.449219 157.007812 254.992188 156.308594 C 254.542969 155.613281 253.960938 155.308594 253.242188 155.402344 C 251.4375 155.632812 250.230469 157.394531 249.617188 160.683594 C 249.273438 162.457031 249.085938 164.976562 249.054688 168.246094 C 251.898438 167.894531 254.074219 167.480469 255.585938 167.011719 C 255.773438 167.210938 255.945312 167.574219 256.101562 168.105469 C 256.703125 170.011719 256.132812 171.242188 254.382812 171.792969 C 252.984375 172.148438 251.632812 172.410156 250.320312 172.574219 L 248.726562 172.746094 C 248.515625 174.738281 248.328125 176.542969 248.164062 178.167969 C 247.296875 185.847656 247.273438 191.035156 248.085938 193.730469 C 248.34375 194.667969 248.578125 195.277344 248.789062 195.558594 C 247.527344 196.289062 246.148438 196.746094 244.648438 196.933594 Z M 244.648438 196.933594 " fill-opacity="1" fill-rule="nonzero"/><path fill="#0b0019" d="M 269.027344 207.492188 C 266.753906 207.78125 264.566406 207.59375 262.464844 206.929688 C 260.371094 206.261719 258.6875 205.242188 257.417969 203.867188 C 256.675781 203.023438 256.191406 202.199219 255.964844 201.398438 C 255.871094 201.148438 255.796875 200.730469 255.746094 200.148438 C 255.691406 199.5625 255.636719 199.308594 255.574219 199.382812 C 256.75 200.132812 257.96875 200.742188 259.230469 201.210938 C 260.488281 201.6875 261.640625 201.976562 262.683594 202.070312 C 263.734375 202.164062 264.738281 202.148438 265.699219 202.023438 C 267.332031 201.824219 268.628906 201.277344 269.589844 200.382812 C 270.546875 199.496094 271.265625 198.433594 271.746094 197.195312 C 272.234375 195.953125 272.578125 194.664062 272.777344 193.320312 C 272.972656 191.976562 273.125 190.691406 273.230469 189.460938 L 273.855469 183.976562 C 271.59375 188.375 269.800781 191.171875 268.480469 192.367188 C 267.15625 193.566406 265.6875 194.269531 264.074219 194.476562 C 262.019531 194.726562 260.21875 194.398438 258.667969 193.492188 C 257.125 192.585938 256.0625 191.164062 255.480469 189.226562 C 255.113281 187.957031 255.003906 186.546875 255.152344 184.992188 C 255.296875 183.441406 255.519531 181.8125 255.824219 180.101562 C 256.292969 177.65625 256.542969 175.265625 256.574219 172.929688 C 256.59375 171.691406 256.4375 170.519531 256.105469 169.414062 C 255.78125 168.3125 255.425781 167.476562 255.042969 166.914062 C 256.300781 166.164062 257.699219 165.691406 259.230469 165.492188 C 259.980469 165.398438 261.035156 165.457031 262.402344 165.664062 C 263.765625 165.863281 264.839844 167.113281 265.621094 169.414062 C 266.046875 171.019531 266.144531 172.773438 265.917969 174.679688 C 265.6875 176.585938 265.371094 178.398438 264.964844 180.117188 C 264.746094 181.242188 264.5625 182.273438 264.417969 183.210938 C 264.28125 184.140625 264.292969 184.882812 264.449219 185.445312 C 264.707031 186.289062 265.3125 186.65625 266.261719 186.539062 C 267.636719 186.363281 268.847656 185.75 269.902344 184.695312 C 270.953125 183.644531 271.824219 182.34375 272.511719 180.789062 C 273.199219 179.238281 273.730469 177.566406 274.105469 175.773438 C 274.488281 173.972656 274.691406 172.164062 274.714844 170.351562 C 274.703125 167.789062 274.410156 165.582031 273.839844 163.726562 L 274.042969 164.226562 C 275.917969 164.09375 277.71875 164.21875 279.449219 164.601562 C 281.1875 164.988281 282.28125 165.523438 282.730469 166.210938 C 282.8125 166.410156 282.890625 166.644531 282.964844 166.914062 C 283.828125 169.664062 283.636719 175.789062 282.386719 185.289062 C 282.074219 188.1875 281.644531 190.914062 281.105469 193.476562 C 280.574219 196.039062 279.84375 198.3125 278.917969 200.304688 C 277.988281 202.304688 276.734375 203.921875 275.152344 205.164062 C 273.578125 206.402344 271.535156 207.179688 269.027344 207.492188 Z M 269.027344 207.492188 " fill-opacity="1" fill-rule="nonzero"/></svg>